# xmcd
#
# Track frame offsets:
#	150
#	14660
#	28473
#	44707
#	59133
#	71725
#	88660
#	105152
#	119351
#	133433
#	147667
#	163415
#	175475
#	188512
#	204161
#	216509
#	230841
#	244081
#	262029
#
# Disc length: 3656 seconds
#
# Revision: 2
# Processed by: cddbd v1.5.2PL0 Copyright (c) Steve Scherf et al.
# Submitted via: EasyCDDAExtractor 15.2.5.1
#
DISCID=3c0e4613
DTITLE=John Lee Hooker - Legends Of Jazz And Blues
DYEAR=2004
DGENRE=Blues
TTITLE0=Four Women In My Life
TTITLE1=Alberta
TTITLE2=Low Down Midnite Boogie
TTITLE3=Sally Mae
TTITLE4=Hobo Blues
TTITLE5=Goin' Mad Blues
TTITLE6=Helpless Blues
TTITLE7=Boogie Chillen
TTITLE8=Stomp Boogie
TTITLE9=Henry's Swing Club
TTITLE10=Black Man Blues
TTITLE11=Find Me A Woman
TTITLE12=Do My Baby Think Of Me
TTITLE13=Landing Blues
TTITLE14=I'm In The Mood
TTITLE15=Grinder Man
TTITLE16=I Need Lovin'
TTITLE17=Wednesday Evening Blues
TTITLE18=War Is Over (Gooby California)
EXTD=YEAR: 2004
EXTT0=
EXTT1=
EXTT2=
EXTT3=
EXTT4=
EXTT5=
EXTT6=
EXTT7=
EXTT8=
EXTT9=
EXTT10=
EXTT11=
EXTT12=
EXTT13=
EXTT14=
EXTT15=
EXTT16=
EXTT17=
EXTT18=
PLAYORDER=
